<svg width="507" height="225" viewBox="0 0 507 225" fill="none" xmlns="http://www.w3.org/2000/svg"><g clip-path="url(#clip0_302_1737)"><path fill="#fff" d="M-710-210h1920V814H-710z"/><path d="M88.728 211h-3v3h3v-3zm0-33.225h3v-3h-3v3zm-80.968 0h-3v3h3v-3zm0-35.737l-2.465-1.711-.535.771v.94h3zM96.545 14.164v-3h-1.57l-.894 1.289 2.464 1.711zm41.043 0h3v-3h-3v3zm0 125.361h-3v3h3v-3zm25.686 0h3v-3h-3v3zm0 38.25v3h3v-3h-3zm-25.686 0v-3h-3v3h3zm0 33.225v3h3v-3h-3zm-48.86-71.475v3h3v-3h-3zm0-64.495v-3h-3v3h3zm7.259 0l2.475 1.695 3.216-4.695h-5.691v3zm-52.21 76.221h-3v9.688l5.474-7.992-2.475-1.696zm0-11.726v-3h-3v3h3zM91.726 211v-33.225h-6V211h6zm-3-36.225H7.76v6h80.968v-6zm-77.967 3v-35.737h-6v35.737h6zm-.536-34.026L99.009 15.875l-4.928-3.422L5.295 140.327l4.929 3.422zM96.545 17.164h41.043v-6H96.545v6zm38.043-3v125.361h6V14.164h-6zm3 128.361h25.686v-6h-25.686v6zm22.686-3v38.25h6v-38.25h-6zm3 35.25h-25.686v6h25.686v-6zm-28.686 3V211h6v-33.225h-6zm3 30.225h-48.86v6h48.86v-6zm-45.86-68.475V75.03h-6v64.495h6zm-3-61.495h7.259v-6h-7.26v6zm4.784-4.696l-52.21 76.222 4.95 3.391 52.21-76.222-4.95-3.39zm-46.736 77.917v-11.726h-6v11.726h6zm-3-8.726h44.952v-6H43.776v6zm150.939 45.022l-2.437 1.751.011.014.01.015 2.416-1.78zm0-150.768l-2.388-1.816-.006.008-.006.008 2.4 1.8zm111.68 0l-2.4 1.8 2.4-1.8zm-.28 150.768l-2.424-1.767-.003.004 2.427 1.763zm-35.737-29.037l-2.724-1.257-.01.022-.01.022 2.744 1.213zm0-92.694l-2.726 1.254.016.033.016.033 2.694-1.32zm-39.926 0l-2.704-1.298-.006.011-.006.012 2.716 1.275zm0 92.694l-2.743 1.214.009.022.01.022 2.724-1.258zm20.103 52.561c-23.357 0-41.025-8.474-53.425-25.303l-4.831 3.559c13.659 18.536 33.217 27.744 58.256 27.744v-6zm-53.404-25.275c-12.339-17.166-18.701-41.68-18.701-73.912h-6c0 32.915 6.481 58.843 19.828 77.414l4.873-3.502zm-18.701-73.912c0-32.626 6.37-56.913 18.665-73.305l-4.8-3.6c-13.393 17.857-19.865 43.64-19.865 76.905h6zm18.652-73.288c12.386-16.279 30.059-24.503 53.453-24.503v-6c-25.001 0-44.555 8.9-58.228 26.87l4.775 3.633zm53.453-24.503c23.589 0 41.247 8.23 53.44 24.486l4.8-3.6C295.3 16.987 275.732 8.093 250.555 8.093v6zm53.44 24.486c12.295 16.395 18.664 40.59 18.664 73.026h6c0-33.084-6.474-58.772-19.864-76.626l-4.8 3.6zm18.664 73.026c0 32.415-6.454 57.013-18.968 74.175l4.848 3.535c13.545-18.576 20.12-44.607 20.12-77.71h-6zm-18.971 74.179c-12.212 16.814-29.777 25.287-53.133 25.287v6c25.038 0 44.513-9.209 57.988-27.761l-4.855-3.526zm-53.133-9.755c5.043 0 9.563-1.379 13.429-4.21 3.834-2.808 6.845-6.912 9.137-12.095l-5.487-2.427c-1.989 4.496-4.422 7.65-7.195 9.682-2.743 2.008-5.994 3.05-9.884 3.05v6zm22.547-16.261c4.754-10.301 6.977-26.395 6.977-47.884h-6c0 21.322-2.245 36.312-6.425 45.369l5.448 2.515zm6.977-47.884c0-21.646-2.215-37.605-7.007-47.388l-5.388 2.64c4.142 8.458 6.395 23.211 6.395 44.748h6zm-6.976-47.322c-2.303-5.007-5.327-8.966-9.165-11.669-3.862-2.72-8.366-4.037-13.383-4.037v6c3.917 0 7.184 1.01 9.929 2.943 2.77 1.95 5.191 4.971 7.168 9.27l5.451-2.507zm-22.548-15.706c-5.018 0-9.537 1.317-13.438 4.026-3.876 2.691-6.97 6.637-9.369 11.636l5.409 2.596c2.067-4.307 4.557-7.342 7.382-9.304 2.8-1.944 6.099-2.954 10.016-2.954v-6zm-22.819 15.685c-4.582 9.763-6.705 25.605-6.705 47.064h6c0-21.352 2.157-36.036 6.137-44.514l-5.432-2.55zm-6.705 47.064c0 21.664 2.129 37.834 6.678 48.119l5.487-2.427c-4.013-9.073-6.165-24.174-6.165-45.692h-6zm6.697 48.163c2.389 5.175 5.471 9.266 9.344 12.063 3.903 2.82 8.439 4.198 13.483 4.198v-6c-3.891 0-7.173-1.042-9.97-3.062-2.829-2.042-5.33-5.21-7.409-9.714l-5.448 2.515zM423.549 211h-3v3h3v-3zm0-33.225h3v-3h-3v3zm-80.968 0h-3v3h3v-3zm0-35.737l-2.464-1.711-.536.771v.94h3zm88.786-127.874v-3h-1.569l-.895 1.289 2.464 1.711zm41.042 0h3v-3h-3v3zm0 125.361h-3v3h3v-3zm25.687 0h3v-3h-3v3zm0 38.25v3h3v-3h-3zm-25.687 0v-3h-3v3h3zm0 33.225v3h3v-3h-3zm-48.86-71.475v3h3v-3h-3zm0-64.495v-3h-3v3h3zm7.26 0l2.475 1.695 3.216-4.695h-5.691v3zm-52.211 76.221h-3v9.688l5.475-7.992-2.475-1.696zm0-11.726v-3h-3v3h3zM426.549 211v-33.225h-6V211h6zm-3-36.225h-80.968v6h80.968v-6zm-77.968 3v-35.737h-6v35.737h6zm-.535-34.026l88.785-127.874-4.928-3.422-88.786 127.874 4.929 3.422zm86.321-126.585h41.042v-6h-41.042v6zm38.042-3v125.361h6V14.164h-6zm3 128.361h25.687v-6h-25.687v6zm22.687-3v38.25h6v-38.25h-6zm3 35.25h-25.687v6h25.687v-6zm-28.687 3V211h6v-33.225h-6zm3 30.225h-48.86v6h48.86v-6zm-45.86-68.475V75.03h-6v64.495h6zm-3-61.495h7.26v-6h-7.26v6zm4.785-4.696l-52.211 76.222 4.95 3.391 52.211-76.222-4.95-3.39zm-46.736 77.917v-11.726h-6v11.726h6zm-3-8.726h44.951v-6h-44.951v6z" fill="#0039A6"/></g><defs><clipPath id="clip0_302_1737"><path fill="#fff" transform="translate(-710 -210)" d="M0 0h1920v1024H0z"/></clipPath></defs></svg>